<svg xmlns="http://www.w3.org/2000/svg" viewBox="0 0 33 24"><defs><style>.a{fill:#6abd45;}.b{fill:#323232;}</style></defs><title>icon-game-invader-A</title><rect class="a" x="6" width="3" height="3"/><rect class="a" x="9" y="3" width="3" height="6"/><rect class="a" x="21" y="3" width="3" height="6"/><rect class="a" x="24" width="3" height="3"/><rect class="a" x="6" y="6" width="21" height="12"/><rect class="a" x="6" y="6" width="3" height="15"/><rect class="a" x="24" y="6" width="3" height="15"/><rect class="a" x="9" y="21" width="6" height="3"/><rect class="a" x="18" y="21" width="6" height="3"/><rect class="a" x="24" y="9" width="6" height="6"/><rect class="a" x="3" y="9" width="6" height="6"/><rect class="a" y="12" width="33" height="3"/><rect class="a" x="30" y="12" width="3" height="9"/><rect class="a" y="12" width="3" height="9"/><rect class="b" x="9" y="9" width="3" height="3"/><rect class="b" x="21" y="9" width="3" height="3"/></svg>