<svg xmlns="http://www.w3.org/2000/svg" viewBox="0 0 160 90"><defs><style>.a{fill:#46b4be;}.b{fill:#969696;}.c{fill:#b780ac;}.d{fill:#5052a3;}.e{fill:#88c768;}.f{fill:#f9ed24;}.g{fill:#ffc30d;}</style></defs><title>icon-mind-the-gap</title><rect class="a" x="-46.36" y="55" width="202.47" height="62.27" transform="translate(50.18 -15.89) rotate(29.87)"/><polygon class="b" points="109.05 81.34 54.11 49.79 81.53 2.05 136.43 33.64 109.05 81.34"/><rect class="c" x="87.66" y="-20.96" width="63.35" height="41.54" transform="translate(15.75 -59.45) rotate(29.87)"/><rect class="d" x="143.04" y="8.92" width="56.64" height="41.54" transform="translate(37.54 -81.39) rotate(29.87)"/><rect class="e" x="-6.15" y="-53.72" width="96.59" height="81.9" transform="translate(32.23 30.14) rotate(-60.13)"/><polygon class="f" points="158.17 109.54 109.05 81.34 136.46 33.59 185.55 61.85 158.17 109.54"/><rect class="g" x="-30.86" y="51.85" width="202.47" height="14.57" transform="translate(38.79 -27.19) rotate(29.87)"/><rect class="g" x="23.9" y="3.49" width="103.88" height="14.57" transform="translate(122.95 -49.62) rotate(119.87)"/><rect class="g" x="90.26" y="32.9" width="89.3" height="6.79" transform="translate(233.56 -62.62) rotate(119.87)"/><rect class="g" x="66.21" y="26.57" width="127.86" height="6.79" transform="translate(228.08 120.76) rotate(-150.13)"/></svg>