<svg xmlns="http://www.w3.org/2000/svg" xmlns:xlink="http://www.w3.org/1999/xlink" viewBox="0 0 160 90"><defs><style>.a,.f{fill:none;}.b{fill:#46b4be;}.c{fill:#ed2024;}.d{fill:#f7ec12;}.e{fill:#168a43;}.f{stroke:#fff;stroke-linecap:round;stroke-miterlimit:10;stroke-width:6px;}.g{fill:#fff;}.h{fill:#b9539f;}.i{fill:#5052a3;}.j{fill:#ffc30d;}.k{fill:#88c768;}.l{fill:#70cddd;}.m{fill:#0f763c;}.n{clip-path:url(#a);}</style><clipPath id="a"><rect class="a" x="65.75" y="20.95" width="28.5" height="27.19" rx="11.03" ry="11.03"/></clipPath></defs><title>icon-webpage</title><rect class="b" width="160" height="11.48"/><circle class="c" cx="152.45" cy="5.74" r="4"/><circle class="d" cx="139.95" cy="5.74" r="4"/><circle class="e" cx="127.45" cy="5.74" r="4"/><line class="f" x1="14.25" y1="5.74" x2="108.31" y2="5.74"/><polygon class="g" points="160 90 0 90 0 44.91 160 45 160 90"/><rect class="h" x="11.25" y="57.61" width="37.5" height="22.96"/><rect class="i" x="111.25" y="57.61" width="37.5" height="22.96"/><rect class="j" x="61.25" y="57.61" width="37.5" height="22.96"/><rect class="k" y="11.48" width="160" height="33.43"/><rect class="l" x="63.75" y="18.95" width="32.5" height="31.19" rx="13.03" ry="13.03"/><path class="m" d="M83.22,21a11.06,11.06,0,0,1,11,11v5.14a11.06,11.06,0,0,1-11,11H76.78a11.06,11.06,0,0,1-11-11V32a11.06,11.06,0,0,1,11-11h6.45m0-4H76.78a15,15,0,0,0-15,15v5.14a15,15,0,0,0,15,15h6.45a15,15,0,0,0,15-15V32a15,15,0,0,0-15-15Z"/><g class="n"><ellipse class="g" cx="80" cy="31.22" rx="8.26" ry="7.88"/><path class="g" d="M90.81,47.93c0,5.7-21.62,5.7-21.62,0a10.82,10.82,0,0,1,21.62,0Z"/></g></svg>