<svg xmlns="http://www.w3.org/2000/svg" viewBox="0 0 160 90"><defs><style>.a{fill:#f27889;}.b{fill:#4b2b77;}.c{fill:#ce384f;}.d{fill:#7f4098;}.e{fill:#00a24b;}</style></defs><title>icon-gsms</title><rect class="a" width="160" height="90"/><polygon class="b" points="6.52 46.98 6.02 46.48 6.02 6.47 6.52 5.97 36.52 5.97 37.02 6.47 37.02 46.48 36.52 46.98 6.52 46.98"/><path class="c" d="M36.52,6.47v40h-30v-40h30m0-1h-30l-1,1v40l1,1h30l1-1v-40l-1-1Z"/><rect class="d" x="6.52" y="38.47" width="30" height="4"/><rect class="d" x="6.52" y="31.47" width="30" height="4"/><rect class="d" x="6.52" y="24.47" width="30" height="4"/><rect class="d" x="6.52" y="17.47" width="30" height="4"/><rect class="e" x="12.28" y="10.8" width="5.46" height="2"/><rect class="e" x="12.28" y="10.8" width="5.46" height="2" transform="translate(26.81 -3.21) rotate(90)"/><rect class="c" x="24.91" y="10.8" width="5.46" height="2" transform="translate(16.44 -16.09) rotate(45)"/><rect class="c" x="24.91" y="10.8" width="5.46" height="2" transform="translate(55.53 0.6) rotate(135)"/><polygon class="b" points="120.71 50.39 120.21 49.89 120.21 9.89 120.71 9.39 150.71 9.39 151.21 9.89 151.21 49.89 150.71 50.39 120.71 50.39"/><path class="c" d="M150.71,9.89v40h-30v-40h30m0-1h-30l-1,1v40l1,1h30l1-1v-40l-1-1Z"/><rect class="d" x="120.71" y="41.89" width="30" height="4"/><rect class="d" x="120.71" y="34.89" width="30" height="4"/><rect class="d" x="120.71" y="27.89" width="30" height="4"/><rect class="d" x="120.71" y="20.89" width="30" height="4"/><rect class="e" x="126.46" y="14.22" width="5.46" height="2"/><rect class="e" x="126.46" y="14.22" width="5.46" height="2" transform="translate(144.41 -113.98) rotate(90)"/><rect class="c" x="139.1" y="14.22" width="5.46" height="2" transform="translate(52.3 -95.83) rotate(45)"/><rect class="c" x="139.1" y="14.22" width="5.46" height="2" transform="translate(252.88 -74.31) rotate(135)"/><rect class="b" x="113.21" y="22.39" width="31" height="41" rx="0.5" ry="0.5"/><path class="c" d="M143.71,22.89v40h-30v-40h30m0-1h-30a1,1,0,0,0-1,1v40a1,1,0,0,0,1,1h30a1,1,0,0,0,1-1v-40a1,1,0,0,0-1-1Z"/><rect class="d" x="113.71" y="54.89" width="30" height="4"/><rect class="d" x="113.71" y="47.89" width="30" height="4"/><rect class="d" x="113.71" y="40.89" width="30" height="4"/><rect class="d" x="113.71" y="33.89" width="30" height="4"/><rect class="e" x="119.46" y="27.22" width="5.46" height="2"/><rect class="e" x="119.46" y="27.22" width="5.46" height="2" transform="translate(150.41 -93.98) rotate(90)"/><rect class="c" x="132.1" y="27.22" width="5.46" height="2" transform="translate(59.44 -87.07) rotate(45)"/><rect class="c" x="132.1" y="27.22" width="5.46" height="2" transform="translate(250.12 -47.17) rotate(135)"/><rect class="b" x="106.21" y="35.39" width="31" height="41" rx="0.5" ry="0.5"/><path class="c" d="M136.71,35.89v40h-30v-40h30m0-1h-30a1,1,0,0,0-1,1v40a1,1,0,0,0,1,1h30a1,1,0,0,0,1-1v-40a1,1,0,0,0-1-1Z"/><rect class="d" x="106.71" y="67.89" width="30" height="4"/><rect class="d" x="106.71" y="60.89" width="30" height="4"/><rect class="d" x="106.71" y="53.89" width="30" height="4"/><rect class="d" x="106.71" y="46.89" width="30" height="4"/><rect class="e" x="112.47" y="40.22" width="5.46" height="2"/><rect class="e" x="112.47" y="40.22" width="5.46" height="2" transform="translate(156.41 -73.98) rotate(90)"/><rect class="c" x="125.11" y="40.22" width="5.46" height="2" transform="translate(66.59 -78.32) rotate(45)"/><rect class="c" x="125.11" y="40.22" width="5.46" height="2" transform="translate(247.37 -20.03) rotate(135)"/><polygon class="b" points="24.14 79.75 23.64 79.25 23.64 39.25 24.14 38.75 54.14 38.75 54.64 39.25 54.64 79.25 54.14 79.75 24.14 79.75"/><path class="c" d="M54.14,39.25v40h-30v-40h30m0-1h-30l-1,1v40l1,1h30l1-1v-40l-1-1Z"/><rect class="d" x="24.14" y="71.25" width="30" height="4"/><rect class="d" x="24.14" y="64.25" width="30" height="4"/><rect class="d" x="24.14" y="57.25" width="30" height="4"/><rect class="d" x="24.14" y="50.25" width="30" height="4"/><rect class="e" x="29.9" y="43.58" width="5.46" height="2"/><rect class="e" x="29.9" y="43.58" width="5.46" height="2" transform="translate(77.2 11.95) rotate(90)"/><rect class="c" x="42.53" y="43.58" width="5.46" height="2" transform="translate(44.78 -18.95) rotate(45)"/><rect class="c" x="42.53" y="43.58" width="5.46" height="2" transform="translate(108.79 44.09) rotate(135)"/></svg>