<svg xmlns="http://www.w3.org/2000/svg" viewBox="0 0 160 90"><defs><style>.a{fill:#323232;}.b{fill:#ffc30d;}</style></defs><title>icon-game-background</title><rect class="a" width="160" height="90"/><polygon class="b" points="13.96 10.36 17.67 11.62 20.81 9.27 20.76 13.19 23.96 15.46 20.22 16.62 19.05 20.36 16.79 17.16 12.87 17.21 15.21 14.07 13.96 10.36"/><polygon class="b" points="59.28 9.23 62.75 11.99 66.98 10.7 65.43 14.85 67.97 18.48 63.55 18.28 60.88 21.82 59.69 17.55 55.51 16.1 59.2 13.66 59.28 9.23"/><polygon class="b" points="124.03 12.27 128.53 15.78 133.97 14.05 132.03 19.42 135.35 24.07 129.64 23.87 126.25 28.46 124.67 22.98 119.26 21.17 123.98 17.97 124.03 12.27"/><polygon class="b" points="72.99 66.79 71.72 70.55 74.09 73.72 70.13 73.67 67.84 76.91 66.67 73.12 62.88 71.95 66.12 69.66 66.07 65.69 69.24 68.06 72.99 66.79"/><polygon class="b" points="44.29 41.84 43.25 44.91 45.19 47.51 41.95 47.47 40.08 50.11 39.12 47.02 36.03 46.05 38.67 44.18 38.63 40.94 41.23 42.88 44.29 41.84"/><polygon class="b" points="102.66 73.61 106.69 74.97 110.11 72.43 110.05 76.69 113.53 79.15 109.46 80.41 108.2 84.48 105.74 81 101.48 81.06 104.03 77.64 102.66 73.61"/><polygon class="b" points="14.47 68.74 18.62 72.67 24.2 71.48 21.75 76.63 24.6 81.58 18.94 80.83 15.12 85.07 14.08 79.46 8.86 77.14 13.88 74.41 14.47 68.74"/><polygon class="b" points="101.48 37.04 97.55 38.98 96.92 43.31 93.87 40.18 89.55 40.92 91.59 37.04 89.55 33.17 93.87 33.91 96.92 30.77 97.55 35.11 101.48 37.04"/><polygon class="b" points="135.69 52.85 140.19 56.36 145.63 54.64 143.69 60.01 147 64.65 141.3 64.46 137.91 69.05 136.33 63.57 130.91 61.76 135.64 58.56 135.69 52.85"/></svg>