<svg xmlns="http://www.w3.org/2000/svg" viewBox="0 0 59.95 57.51"><defs><style>.a{fill:#ffc30d;}.b{fill:#231f20;}</style></defs><title>icon-game-ball</title><path class="a" d="M45.41,55a2.5,2.5,0,0,1-1.16-.29L30,47.21,15.7,54.72a2.5,2.5,0,0,1-3.63-2.64L14.8,36.19,3.25,24.94a2.5,2.5,0,0,1,1.39-4.26l16-2.32L27.73,3.89a2.5,2.5,0,0,1,4.48,0l7.14,14.46,16,2.32a2.5,2.5,0,0,1,1.39,4.26L45.15,36.19l2.73,15.89A2.5,2.5,0,0,1,45.41,55Z"/><path class="b" d="M30,5l7.72,15.64L55,23.15,42.46,35.32l2.95,17.19L30,44.39,14.54,52.51l2.95-17.19L5,23.15l17.26-2.51L30,5m0-5a5,5,0,0,0-4.48,2.79L18.94,16.07,4.28,18.2a5,5,0,0,0-2.77,8.53L12.12,37.06l-2.5,14.6a5,5,0,0,0,7.25,5.27L30,50l13.11,6.89a5,5,0,0,0,7.25-5.27l-2.5-14.6L58.44,26.73a5,5,0,0,0-2.77-8.53L41,16.07,34.46,2.79A5,5,0,0,0,30,0Z"/></svg>