<svg xmlns="http://www.w3.org/2000/svg" viewBox="0 0 36.02 51.09"><defs><style>.a{fill:#56327b;}.b{fill:#28aae2;}</style></defs><title>icon-database</title><path class="a" d="M36,43.38c0,4.26-8.06,7.72-18,7.72S0,47.64,0,43.38V36c0,4.26,8.06,7.72,18,7.72S36,40.23,36,36Z"/><path class="a" d="M36,33.38c0,4.26-8.06,7.72-18,7.72S0,37.64,0,33.38V26c0,4.26,8.06,7.72,18,7.72S36,30.23,36,26Z"/><path class="a" d="M36,23.38c0,4.26-8.06,7.72-18,7.72S0,27.64,0,23.38V16c0,4.26,8.06,7.72,18,7.72S36,20.23,36,16Z"/><path class="a" d="M36,13.38c0,4.26-8.06,7.72-18,7.72S0,17.64,0,13.38V7.72H36Z"/><ellipse class="a" cx="18.01" cy="7.72" rx="18.01" ry="7.72"/><ellipse class="b" cx="18.01" cy="7.72" rx="11.49" ry="3.01"/></svg>